<svg width="304" height="499" viewBox="0 0 304 499" fill="none" xmlns="http://www.w3.org/2000/svg">
<g filter="url(#filter0_dd_1_3514)">
<rect x="22" y="17" width="260" height="455" rx="20" fill="white"/>
<path d="M56.875 59.75C56.875 59.8495 56.8355 59.9448 56.7652 60.0152C56.6948 60.0855 56.5995 60.125 56.5 60.125H47.5C47.4005 60.125 47.3052 60.0855 47.2348 60.0152C47.1645 59.9448 47.125 59.8495 47.125 59.75C47.125 59.6505 47.1645 59.5552 47.2348 59.4848C47.3052 59.4145 47.4005 59.375 47.5 59.375H47.875V56.375C47.875 56.2755 47.9145 56.1802 47.9848 56.1098C48.0552 56.0395 48.1505 56 48.25 56H49.375C49.4745 56 49.5698 56.0395 49.6402 56.1098C49.7105 56.1802 49.75 56.2755 49.75 56.375V59.375H50.5V54.125C50.5 54.0255 50.5395 53.9302 50.6098 53.8598C50.6802 53.7895 50.7755 53.75 50.875 53.75H52.375C52.4745 53.75 52.5698 53.7895 52.6402 53.8598C52.7105 53.9302 52.75 54.0255 52.75 54.125V59.375H53.5V51.875C53.5 51.7755 53.5395 51.6802 53.6098 51.6098C53.6802 51.5395 53.7755 51.5 53.875 51.5H55.75C55.8495 51.5 55.9448 51.5395 56.0152 51.6098C56.0855 51.6802 56.125 51.7755 56.125 51.875V59.375H56.5C56.5995 59.375 56.6948 59.4145 56.7652 59.4848C56.8355 59.5552 56.875 59.6505 56.875 59.75Z" fill="#667085"/>
<path d="M68.0284 51.2727L70.2997 58.142H70.3892L72.6562 51.2727H74.3949L71.3182 60H69.3665L66.294 51.2727H68.0284ZM80.7873 53.6719C80.7475 53.2997 80.5799 53.0099 80.2844 52.8026C79.9918 52.5952 79.6112 52.4915 79.1424 52.4915C78.8129 52.4915 78.5302 52.5412 78.2944 52.6406C78.0586 52.7401 77.8782 52.875 77.7532 53.0455C77.6282 53.2159 77.5643 53.4105 77.5614 53.6293C77.5614 53.8111 77.6026 53.9687 77.685 54.1023C77.7702 54.2358 77.8853 54.3494 78.0302 54.4432C78.1751 54.5341 78.3356 54.6108 78.5117 54.6733C78.6879 54.7358 78.8654 54.7884 79.0444 54.831L79.8626 55.0355C80.1921 55.1122 80.5089 55.2159 80.8129 55.3466C81.1197 55.4773 81.3938 55.642 81.6353 55.8409C81.8796 56.0398 82.0728 56.2798 82.2148 56.5611C82.3569 56.8423 82.4279 57.1719 82.4279 57.5497C82.4279 58.0611 82.2972 58.5114 82.0359 58.9006C81.7745 59.2869 81.3967 59.5895 80.9023 59.8082C80.4109 60.0241 79.8157 60.1321 79.1168 60.1321C78.4379 60.1321 77.8484 60.027 77.3484 59.8168C76.8512 59.6065 76.462 59.2997 76.1808 58.8963C75.9023 58.4929 75.7518 58.0014 75.729 57.4219H77.2844C77.3072 57.7259 77.4009 57.9787 77.5657 58.1804C77.7305 58.3821 77.945 58.5327 78.2092 58.6321C78.4762 58.7315 78.7745 58.7812 79.104 58.7812C79.4478 58.7812 79.7489 58.7301 80.0075 58.6278C80.2688 58.5227 80.4734 58.3778 80.6211 58.1932C80.7688 58.0057 80.8441 57.7869 80.8469 57.5369C80.8441 57.3097 80.7773 57.1222 80.6467 56.9744C80.516 56.8239 80.3327 56.6989 80.0969 56.5994C79.864 56.4972 79.5913 56.4062 79.2788 56.3267L78.2859 56.071C77.5671 55.8864 76.9989 55.6065 76.5813 55.2315C76.1665 54.8537 75.9592 54.3523 75.9592 53.7273C75.9592 53.2131 76.0984 52.7628 76.3768 52.3764C76.658 51.9901 77.0401 51.6903 77.5231 51.4773C78.006 51.2614 78.5529 51.1534 79.1637 51.1534C79.783 51.1534 80.3256 51.2614 80.7915 51.4773C81.2603 51.6903 81.6282 51.9872 81.8952 52.3679C82.1623 52.7457 82.3001 53.1804 82.3086 53.6719H80.7873ZM87.8139 60V51.2727H91.0866C91.7571 51.2727 92.3196 51.3977 92.7741 51.6477C93.2315 51.8977 93.5767 52.2415 93.8097 52.679C94.0455 53.1136 94.1634 53.608 94.1634 54.1619C94.1634 54.7216 94.0455 55.2187 93.8097 55.6534C93.5739 56.0881 93.2259 56.4304 92.7656 56.6804C92.3054 56.9276 91.7386 57.0511 91.0653 57.0511H88.8963V55.7514H90.8523C91.2443 55.7514 91.5653 55.6832 91.8153 55.5469C92.0653 55.4105 92.25 55.223 92.3693 54.9844C92.4915 54.7457 92.5526 54.4716 92.5526 54.1619C92.5526 53.8523 92.4915 53.5795 92.3693 53.3438C92.25 53.108 92.0639 52.9247 91.8111 52.794C91.5611 52.6605 91.2386 52.5938 90.8438 52.5938H89.3949V60H87.8139ZM96.1847 60H94.4972L97.5696 51.2727H99.5213L102.598 60H100.911L98.5795 53.0625H98.5114L96.1847 60ZM96.2401 56.5781H100.842V57.848H96.2401V56.5781ZM108.85 53.6719C108.81 53.2997 108.642 53.0099 108.347 52.8026C108.054 52.5952 107.674 52.4915 107.205 52.4915C106.875 52.4915 106.593 52.5412 106.357 52.6406C106.121 52.7401 105.941 52.875 105.816 53.0455C105.691 53.2159 105.627 53.4105 105.624 53.6293C105.624 53.8111 105.665 53.9687 105.748 54.1023C105.833 54.2358 105.948 54.3494 106.093 54.4432C106.238 54.5341 106.398 54.6108 106.574 54.6733C106.75 54.7358 106.928 54.7884 107.107 54.831L107.925 55.0355C108.255 55.1122 108.571 55.2159 108.875 55.3466C109.182 55.4773 109.456 55.642 109.698 55.8409C109.942 56.0398 110.135 56.2798 110.277 56.5611C110.419 56.8423 110.49 57.1719 110.49 57.5497C110.49 58.0611 110.36 58.5114 110.098 58.9006C109.837 59.2869 109.459 59.5895 108.965 59.8082C108.473 60.0241 107.878 60.1321 107.179 60.1321C106.5 60.1321 105.911 60.027 105.411 59.8168C104.914 59.6065 104.525 59.2997 104.243 58.8963C103.965 58.4929 103.814 58.0014 103.792 57.4219H105.347C105.37 57.7259 105.463 57.9787 105.628 58.1804C105.793 58.3821 106.007 58.5327 106.272 58.6321C106.539 58.7315 106.837 58.7812 107.167 58.7812C107.51 58.7812 107.811 58.7301 108.07 58.6278C108.331 58.5227 108.536 58.3778 108.684 58.1932C108.831 58.0057 108.907 57.7869 108.909 57.5369C108.907 57.3097 108.84 57.1222 108.709 56.9744C108.578 56.8239 108.395 56.6989 108.159 56.5994C107.926 56.4972 107.654 56.4062 107.341 56.3267L106.348 56.071C105.63 55.8864 105.061 55.6065 104.644 55.2315C104.229 54.8537 104.022 54.3523 104.022 53.7273C104.022 53.2131 104.161 52.7628 104.439 52.3764C104.721 51.9901 105.103 51.6903 105.586 51.4773C106.069 51.2614 106.615 51.1534 107.226 51.1534C107.846 51.1534 108.388 51.2614 108.854 51.4773C109.323 51.6903 109.691 51.9872 109.958 52.3679C110.225 52.7457 110.363 53.1804 110.371 53.6719H108.85ZM112.016 52.598V51.2727H118.979V52.598H116.282V60H114.714V52.598H112.016ZM124.298 60V51.2727H127.571C128.241 51.2727 128.804 51.3977 129.259 51.6477C129.716 51.8977 130.061 52.2415 130.294 52.679C130.53 53.1136 130.648 53.608 130.648 54.1619C130.648 54.7216 130.53 55.2187 130.294 55.6534C130.058 56.0881 129.71 56.4304 129.25 56.6804C128.79 56.9276 128.223 57.0511 127.55 57.0511H125.381V55.7514H127.337C127.729 55.7514 128.05 55.6832 128.3 55.5469C128.55 55.4105 128.734 55.223 128.854 54.9844C128.976 54.7457 129.037 54.4716 129.037 54.1619C129.037 53.8523 128.976 53.5795 128.854 53.3438C128.734 53.108 128.548 52.9247 128.295 52.794C128.045 52.6605 127.723 52.5938 127.328 52.5938H125.879V60H124.298ZM132.521 60V51.2727H138.197V52.598H134.102V54.9673H137.903V56.2926H134.102V58.6747H138.231V60H132.521ZM140.31 60V51.2727H143.583C144.253 51.2727 144.816 51.3892 145.27 51.6222C145.728 51.8551 146.073 52.1818 146.306 52.6023C146.542 53.0199 146.659 53.5071 146.659 54.0639C146.659 54.6236 146.54 55.1094 146.301 55.5213C146.066 55.9304 145.718 56.2472 145.257 56.4716C144.797 56.6932 144.232 56.804 143.561 56.804H141.23V55.4915H143.348C143.74 55.4915 144.061 55.4375 144.311 55.3295C144.561 55.2187 144.746 55.0582 144.865 54.848C144.988 54.6349 145.049 54.3736 145.049 54.0639C145.049 53.7543 144.988 53.4901 144.865 53.2713C144.743 53.0497 144.557 52.8821 144.307 52.7685C144.057 52.652 143.735 52.5938 143.34 52.5938H141.891V60H140.31ZM144.819 56.0455L146.979 60H145.215L143.093 56.0455H144.819ZM150.196 51.2727V60H148.615V51.2727H150.196ZM160.206 55.6364C160.206 56.5767 160.03 57.3821 159.678 58.0526C159.328 58.7202 158.851 59.2315 158.246 59.5866C157.643 59.9418 156.96 60.1193 156.196 60.1193C155.432 60.1193 154.747 59.9418 154.142 59.5866C153.54 59.2287 153.063 58.7159 152.71 58.0483C152.361 57.3778 152.186 56.5739 152.186 55.6364C152.186 54.696 152.361 53.892 152.71 53.2244C153.063 52.554 153.54 52.0412 154.142 51.6861C154.747 51.331 155.432 51.1534 156.196 51.1534C156.96 51.1534 157.643 51.331 158.246 51.6861C158.851 52.0412 159.328 52.554 159.678 53.2244C160.03 53.892 160.206 54.696 160.206 55.6364ZM158.616 55.6364C158.616 54.9744 158.513 54.4162 158.305 53.9616C158.101 53.5043 157.817 53.1591 157.453 52.9261C157.089 52.6903 156.67 52.5724 156.196 52.5724C155.722 52.5724 155.303 52.6903 154.939 52.9261C154.575 53.1591 154.29 53.5043 154.082 53.9616C153.878 54.4162 153.776 54.9744 153.776 55.6364C153.776 56.2983 153.878 56.858 154.082 57.3153C154.29 57.7699 154.575 58.1151 154.939 58.3509C155.303 58.5838 155.722 58.7003 156.196 58.7003C156.67 58.7003 157.089 58.5838 157.453 58.3509C157.817 58.1151 158.101 57.7699 158.305 57.3153C158.513 56.858 158.616 56.2983 158.616 55.6364ZM165.158 60H162.201V51.2727H165.218C166.084 51.2727 166.828 51.4474 167.451 51.7969C168.076 52.1435 168.556 52.642 168.891 53.2926C169.226 53.9432 169.394 54.7216 169.394 55.6278C169.394 56.5369 169.225 57.3182 168.887 57.9716C168.551 58.625 168.067 59.1264 167.434 59.4759C166.803 59.8253 166.044 60 165.158 60ZM163.782 58.6321H165.081C165.689 58.6321 166.196 58.5213 166.603 58.2997C167.009 58.0753 167.314 57.7415 167.519 57.2983C167.723 56.8523 167.826 56.2955 167.826 55.6278C167.826 54.9602 167.723 54.4062 167.519 53.9659C167.314 53.5227 167.012 53.1918 166.611 52.973C166.213 52.7514 165.719 52.6406 165.128 52.6406H163.782V58.6321Z" fill="#667085"/>
<path d="M48.5206 113V112.233L51.4013 109.08C51.7393 108.71 52.0178 108.389 52.2365 108.116C52.4553 107.841 52.6172 107.582 52.7223 107.341C52.8303 107.097 52.8842 106.841 52.8842 106.574C52.8842 106.267 52.8104 106.001 52.6626 105.777C52.5178 105.553 52.3189 105.379 52.0661 105.257C51.8132 105.135 51.5291 105.074 51.2138 105.074C50.8786 105.074 50.5859 105.143 50.3359 105.283C50.0888 105.419 49.897 105.611 49.7607 105.858C49.6271 106.105 49.5604 106.395 49.5604 106.727H48.5547C48.5547 106.216 48.6726 105.767 48.9084 105.381C49.1442 104.994 49.4652 104.693 49.8714 104.477C50.2805 104.261 50.7393 104.153 51.2479 104.153C51.7592 104.153 52.2124 104.261 52.6072 104.477C53.0021 104.693 53.3118 104.984 53.5362 105.351C53.7607 105.717 53.8729 106.125 53.8729 106.574C53.8729 106.895 53.8146 107.209 53.6982 107.516C53.5845 107.82 53.3857 108.159 53.1016 108.534C52.8203 108.906 52.4297 109.361 51.9297 109.898L49.9695 111.994V112.062H54.0263V113H48.5206ZM58.6328 113.119C57.9908 113.119 57.4439 112.945 56.9922 112.595C56.5405 112.243 56.1953 111.733 55.9567 111.065C55.718 110.395 55.5987 109.585 55.5987 108.636C55.5987 107.693 55.718 106.888 55.9567 106.22C56.1982 105.55 56.5447 105.038 56.9964 104.686C57.451 104.331 57.9964 104.153 58.6328 104.153C59.2692 104.153 59.8132 104.331 60.2649 104.686C60.7195 105.038 61.0661 105.55 61.3047 106.22C61.5462 106.888 61.6669 107.693 61.6669 108.636C61.6669 109.585 61.5476 110.395 61.3089 111.065C61.0703 111.733 60.7251 112.243 60.2734 112.595C59.8217 112.945 59.2749 113.119 58.6328 113.119ZM58.6328 112.182C59.2692 112.182 59.7635 111.875 60.1158 111.261C60.468 110.648 60.6442 109.773 60.6442 108.636C60.6442 107.881 60.5632 107.237 60.4013 106.706C60.2422 106.175 60.0121 105.77 59.7109 105.491C59.4126 105.213 59.0533 105.074 58.6328 105.074C58.0021 105.074 57.5092 105.385 57.1541 106.007C56.799 106.626 56.6214 107.503 56.6214 108.636C56.6214 109.392 56.701 110.034 56.8601 110.562C57.0192 111.091 57.2479 111.493 57.5462 111.768C57.8473 112.044 58.2095 112.182 58.6328 112.182Z" fill="#667085"/>
<path d="M52.4325 151.873V160.6H51.3757V152.981H51.3246L49.1939 154.395V153.322L51.3757 151.873H52.4325ZM57.7891 160.719C57.147 160.719 56.6001 160.545 56.1484 160.195C55.6967 159.843 55.3516 159.333 55.1129 158.665C54.8743 157.995 54.755 157.185 54.755 156.236C54.755 155.293 54.8743 154.488 55.1129 153.82C55.3544 153.15 55.701 152.638 56.1527 152.286C56.6072 151.931 57.1527 151.753 57.7891 151.753C58.4254 151.753 58.9695 151.931 59.4212 152.286C59.8757 152.638 60.2223 153.15 60.4609 153.82C60.7024 154.488 60.8232 155.293 60.8232 156.236C60.8232 157.185 60.7038 157.995 60.4652 158.665C60.2266 159.333 59.8814 159.843 59.4297 160.195C58.978 160.545 58.4311 160.719 57.7891 160.719ZM57.7891 159.782C58.4254 159.782 58.9197 159.475 59.272 158.861C59.6243 158.248 59.8004 157.373 59.8004 156.236C59.8004 155.481 59.7195 154.837 59.5575 154.306C59.3984 153.775 59.1683 153.37 58.8672 153.091C58.5689 152.813 58.2095 152.674 57.7891 152.674C57.1584 152.674 56.6655 152.985 56.3104 153.607C55.9553 154.226 55.7777 155.103 55.7777 156.236C55.7777 156.992 55.8572 157.634 56.0163 158.163C56.1754 158.691 56.4041 159.093 56.7024 159.368C57.0036 159.644 57.3658 159.782 57.7891 159.782Z" fill="#667085"/>
<path d="M52.4325 199.473V208.2H51.3757V200.581H51.3246L49.1939 201.995V200.922L51.3757 199.473H52.4325ZM57.7891 208.319C57.147 208.319 56.6001 208.145 56.1484 207.795C55.6967 207.443 55.3516 206.933 55.1129 206.265C54.8743 205.595 54.755 204.785 54.755 203.836C54.755 202.893 54.8743 202.088 55.1129 201.42C55.3544 200.75 55.701 200.238 56.1527 199.886C56.6072 199.531 57.1527 199.353 57.7891 199.353C58.4254 199.353 58.9695 199.531 59.4212 199.886C59.8757 200.238 60.2223 200.75 60.4609 201.42C60.7024 202.088 60.8232 202.893 60.8232 203.836C60.8232 204.785 60.7038 205.595 60.4652 206.265C60.2266 206.933 59.8814 207.443 59.4297 207.795C58.978 208.145 58.4311 208.319 57.7891 208.319ZM57.7891 207.382C58.4254 207.382 58.9197 207.075 59.272 206.461C59.6243 205.848 59.8004 204.973 59.8004 203.836C59.8004 203.081 59.7195 202.437 59.5575 201.906C59.3984 201.375 59.1683 200.97 58.8672 200.691C58.5689 200.413 58.2095 200.274 57.7891 200.274C57.1584 200.274 56.6655 200.585 56.3104 201.207C55.9553 201.826 55.7777 202.703 55.7777 203.836C55.7777 204.592 55.8572 205.234 56.0163 205.763C56.1754 206.291 56.4041 206.693 56.7024 206.968C57.0036 207.244 57.3658 207.382 57.7891 207.382Z" fill="#667085"/>
<path d="M52.4325 247.073V255.8H51.3757V248.181H51.3246L49.1939 249.595V248.522L51.3757 247.073H52.4325ZM57.7891 255.919C57.147 255.919 56.6001 255.745 56.1484 255.395C55.6967 255.043 55.3516 254.533 55.1129 253.865C54.8743 253.195 54.755 252.385 54.755 251.436C54.755 250.493 54.8743 249.688 55.1129 249.02C55.3544 248.35 55.701 247.838 56.1527 247.486C56.6072 247.131 57.1527 246.953 57.7891 246.953C58.4254 246.953 58.9695 247.131 59.4212 247.486C59.8757 247.838 60.2223 248.35 60.4609 249.02C60.7024 249.688 60.8232 250.493 60.8232 251.436C60.8232 252.385 60.7038 253.195 60.4652 253.865C60.2266 254.533 59.8814 255.043 59.4297 255.395C58.978 255.745 58.4311 255.919 57.7891 255.919ZM57.7891 254.982C58.4254 254.982 58.9197 254.675 59.272 254.061C59.6243 253.448 59.8004 252.573 59.8004 251.436C59.8004 250.681 59.7195 250.037 59.5575 249.506C59.3984 248.975 59.1683 248.57 58.8672 248.291C58.5689 248.013 58.2095 247.874 57.7891 247.874C57.1584 247.874 56.6655 248.185 56.3104 248.807C55.9553 249.426 55.7777 250.303 55.7777 251.436C55.7777 252.192 55.8572 252.834 56.0163 253.362C56.1754 253.891 56.4041 254.293 56.7024 254.568C57.0036 254.844 57.3658 254.982 57.7891 254.982Z" fill="#667085"/>
<path d="M52.4325 294.673V303.4H51.3757V295.781H51.3246L49.1939 297.195V296.122L51.3757 294.673H52.4325ZM57.7891 303.519C57.147 303.519 56.6001 303.345 56.1484 302.995C55.6967 302.643 55.3516 302.133 55.1129 301.465C54.8743 300.795 54.755 299.985 54.755 299.036C54.755 298.093 54.8743 297.288 55.1129 296.62C55.3544 295.95 55.701 295.438 56.1527 295.086C56.6072 294.731 57.1527 294.553 57.7891 294.553C58.4254 294.553 58.9695 294.731 59.4212 295.086C59.8757 295.438 60.2223 295.95 60.4609 296.62C60.7024 297.288 60.8232 298.093 60.8232 299.036C60.8232 299.985 60.7038 300.795 60.4652 301.465C60.2266 302.133 59.8814 302.643 59.4297 302.995C58.978 303.345 58.4311 303.519 57.7891 303.519ZM57.7891 302.582C58.4254 302.582 58.9197 302.275 59.272 301.661C59.6243 301.048 59.8004 300.173 59.8004 299.036C59.8004 298.281 59.7195 297.637 59.5575 297.106C59.3984 296.575 59.1683 296.17 58.8672 295.891C58.5689 295.613 58.2095 295.474 57.7891 295.474C57.1584 295.474 56.6655 295.785 56.3104 296.407C55.9553 297.026 55.7777 297.903 55.7777 299.036C55.7777 299.792 55.8572 300.434 56.0163 300.962C56.1754 301.491 56.4041 301.893 56.7024 302.168C57.0036 302.444 57.3658 302.582 57.7891 302.582Z" fill="#667085"/>
<path d="M52.4325 342.273V351H51.3757V343.381H51.3246L49.1939 344.795V343.722L51.3757 342.273H52.4325ZM57.7891 351.119C57.147 351.119 56.6001 350.945 56.1484 350.595C55.6967 350.243 55.3516 349.733 55.1129 349.065C54.8743 348.395 54.755 347.585 54.755 346.636C54.755 345.693 54.8743 344.888 55.1129 344.22C55.3544 343.55 55.701 343.038 56.1527 342.686C56.6072 342.331 57.1527 342.153 57.7891 342.153C58.4254 342.153 58.9695 342.331 59.4212 342.686C59.8757 343.038 60.2223 343.55 60.4609 344.22C60.7024 344.888 60.8232 345.693 60.8232 346.636C60.8232 347.585 60.7038 348.395 60.4652 349.065C60.2266 349.733 59.8814 350.243 59.4297 350.595C58.978 350.945 58.4311 351.119 57.7891 351.119ZM57.7891 350.182C58.4254 350.182 58.9197 349.875 59.272 349.261C59.6243 348.648 59.8004 347.773 59.8004 346.636C59.8004 345.881 59.7195 345.237 59.5575 344.706C59.3984 344.175 59.1683 343.77 58.8672 343.491C58.5689 343.213 58.2095 343.074 57.7891 343.074C57.1584 343.074 56.6655 343.385 56.3104 344.007C55.9553 344.626 55.7777 345.503 55.7777 346.636C55.7777 347.392 55.8572 348.034 56.0163 348.562C56.1754 349.091 56.4041 349.493 56.7024 349.768C57.0036 350.044 57.3658 350.182 57.7891 350.182Z" fill="#667085"/>
<line x1="70.5" y1="110" x2="257.5" y2="110" stroke="#DCDFE4" stroke-linecap="round" stroke-dasharray="4 4"/>
<line x1="70.5" y1="160.1" x2="257.5" y2="160.1" stroke="#DCDFE4" stroke-linecap="round" stroke-dasharray="4 4"/>
<line x1="70.5" y1="207.7" x2="257.5" y2="207.7" stroke="#DCDFE4" stroke-linecap="round" stroke-dasharray="4 4"/>
<line x1="70.5" y1="255.3" x2="257.5" y2="255.3" stroke="#DCDFE4" stroke-linecap="round" stroke-dasharray="4 4"/>
<line x1="70.5" y1="302.9" x2="257.5" y2="302.9" stroke="#DCDFE4" stroke-linecap="round" stroke-dasharray="4 4"/>
<line x1="70.5" y1="350.5" x2="257.5" y2="350.5" stroke="#DCDFE4" stroke-linecap="round" stroke-dasharray="4 4"/>
<path d="M84.4272 365.21V364.273H90.9727V365.21H88.2283V373H87.1715V365.21H84.4272ZM93.473 369.062V373H92.4673V364.273H93.473V367.477H93.5582C93.7116 367.139 93.9418 366.871 94.2486 366.672C94.5582 366.47 94.9702 366.369 95.4844 366.369C95.9304 366.369 96.321 366.459 96.6562 366.638C96.9915 366.814 97.2514 367.085 97.4361 367.452C97.6236 367.815 97.7173 368.278 97.7173 368.841V373H96.7116V368.909C96.7116 368.389 96.5767 367.987 96.3068 367.703C96.0398 367.416 95.669 367.273 95.1946 367.273C94.8651 367.273 94.5696 367.342 94.3082 367.482C94.0497 367.621 93.8452 367.824 93.6946 368.091C93.5469 368.358 93.473 368.682 93.473 369.062ZM99.5572 373V366.455H100.563V373H99.5572ZM100.069 365.364C99.8725 365.364 99.7035 365.297 99.5614 365.163C99.4222 365.03 99.3526 364.869 99.3526 364.682C99.3526 364.494 99.4222 364.334 99.5614 364.2C99.7035 364.067 99.8725 364 100.069 364C100.265 364 100.432 364.067 100.571 364.2C100.713 364.334 100.784 364.494 100.784 364.682C100.784 364.869 100.713 365.03 100.571 365.163C100.432 365.297 100.265 365.364 100.069 365.364ZM107.041 367.92L106.138 368.176C106.081 368.026 105.997 367.879 105.886 367.737C105.778 367.592 105.631 367.473 105.443 367.379C105.256 367.286 105.016 367.239 104.723 367.239C104.322 367.239 103.989 367.331 103.722 367.516C103.457 367.697 103.325 367.929 103.325 368.21C103.325 368.46 103.416 368.658 103.598 368.803C103.78 368.947 104.064 369.068 104.45 369.165L105.422 369.403C106.007 369.545 106.443 369.763 106.73 370.055C107.017 370.345 107.161 370.719 107.161 371.176C107.161 371.551 107.053 371.886 106.837 372.182C106.624 372.477 106.325 372.71 105.942 372.881C105.558 373.051 105.112 373.136 104.604 373.136C103.936 373.136 103.384 372.991 102.946 372.702C102.509 372.412 102.232 371.989 102.115 371.432L103.07 371.193C103.161 371.545 103.332 371.81 103.585 371.986C103.841 372.162 104.175 372.25 104.587 372.25C105.055 372.25 105.428 372.151 105.703 371.952C105.982 371.75 106.121 371.509 106.121 371.227C106.121 371 106.041 370.81 105.882 370.656C105.723 370.5 105.479 370.384 105.149 370.307L104.058 370.051C103.459 369.909 103.018 369.689 102.737 369.391C102.459 369.089 102.32 368.713 102.32 368.261C102.32 367.892 102.423 367.565 102.631 367.281C102.841 366.997 103.126 366.774 103.487 366.612C103.851 366.45 104.263 366.369 104.723 366.369C105.371 366.369 105.879 366.511 106.249 366.795C106.621 367.08 106.885 367.455 107.041 367.92ZM113.532 373L111.538 366.455H112.595L114.01 371.466H114.078L115.475 366.455H116.549L117.93 371.449H117.998L119.413 366.455H120.47L118.475 373H117.487L116.055 367.972H115.953L114.521 373H113.532ZM124.321 373.136C123.69 373.136 123.146 372.997 122.689 372.719C122.234 372.438 121.884 372.045 121.636 371.543C121.392 371.037 121.27 370.449 121.27 369.778C121.27 369.108 121.392 368.517 121.636 368.006C121.884 367.491 122.227 367.091 122.668 366.804C123.111 366.514 123.628 366.369 124.219 366.369C124.56 366.369 124.896 366.426 125.229 366.54C125.561 366.653 125.864 366.838 126.136 367.094C126.409 367.347 126.626 367.682 126.788 368.099C126.95 368.517 127.031 369.031 127.031 369.642V370.068H121.986V369.199H126.009C126.009 368.83 125.935 368.5 125.787 368.21C125.642 367.92 125.435 367.692 125.165 367.524C124.898 367.357 124.582 367.273 124.219 367.273C123.818 367.273 123.472 367.372 123.179 367.571C122.889 367.767 122.666 368.023 122.51 368.338C122.354 368.653 122.276 368.991 122.276 369.352V369.932C122.276 370.426 122.361 370.845 122.531 371.189C122.705 371.53 122.945 371.79 123.251 371.969C123.558 372.145 123.915 372.233 124.321 372.233C124.585 372.233 124.824 372.196 125.037 372.122C125.253 372.045 125.439 371.932 125.595 371.781C125.751 371.628 125.872 371.437 125.957 371.21L126.929 371.483C126.827 371.812 126.655 372.102 126.413 372.352C126.172 372.599 125.874 372.793 125.518 372.932C125.163 373.068 124.764 373.136 124.321 373.136ZM131.305 373.136C130.675 373.136 130.131 372.997 129.673 372.719C129.219 372.438 128.868 372.045 128.621 371.543C128.376 371.037 128.254 370.449 128.254 369.778C128.254 369.108 128.376 368.517 128.621 368.006C128.868 367.491 129.212 367.091 129.652 366.804C130.095 366.514 130.612 366.369 131.203 366.369C131.544 366.369 131.881 366.426 132.213 366.54C132.545 366.653 132.848 366.838 133.121 367.094C133.393 367.347 133.611 367.682 133.773 368.099C133.935 368.517 134.016 369.031 134.016 369.642V370.068H128.97V369.199H132.993C132.993 368.83 132.919 368.5 132.771 368.21C132.626 367.92 132.419 367.692 132.149 367.524C131.882 367.357 131.567 367.273 131.203 367.273C130.803 367.273 130.456 367.372 130.163 367.571C129.874 367.767 129.651 368.023 129.494 368.338C129.338 368.653 129.26 368.991 129.26 369.352V369.932C129.26 370.426 129.345 370.845 129.516 371.189C129.689 371.53 129.929 371.79 130.236 371.969C130.543 372.145 130.899 372.233 131.305 372.233C131.57 372.233 131.808 372.196 132.021 372.122C132.237 372.045 132.423 371.932 132.58 371.781C132.736 371.628 132.857 371.437 132.942 371.21L133.913 371.483C133.811 371.812 133.639 372.102 133.398 372.352C133.156 372.599 132.858 372.793 132.503 372.932C132.148 373.068 131.749 373.136 131.305 373.136ZM136.483 370.614L136.466 369.369H136.67L139.534 366.455H140.778L137.727 369.54H137.642L136.483 370.614ZM135.545 373V364.273H136.551V373H135.545ZM139.705 373L137.148 369.761L137.864 369.062L140.983 373H139.705Z" fill="#667085"/>
<path d="M187.787 373V364.273H188.844V372.062H192.901V373H187.787ZM196.327 373.153C195.912 373.153 195.536 373.075 195.198 372.919C194.86 372.76 194.591 372.531 194.392 372.233C194.194 371.932 194.094 371.568 194.094 371.142C194.094 370.767 194.168 370.463 194.316 370.23C194.463 369.994 194.661 369.81 194.908 369.676C195.155 369.543 195.428 369.443 195.726 369.378C196.027 369.31 196.33 369.256 196.634 369.216C197.032 369.165 197.354 369.126 197.601 369.101C197.851 369.072 198.033 369.026 198.147 368.96C198.263 368.895 198.321 368.781 198.321 368.619V368.585C198.321 368.165 198.206 367.838 197.976 367.605C197.749 367.372 197.404 367.256 196.941 367.256C196.461 367.256 196.084 367.361 195.811 367.571C195.539 367.781 195.347 368.006 195.236 368.244L194.282 367.903C194.452 367.506 194.679 367.196 194.963 366.974C195.25 366.75 195.563 366.594 195.901 366.506C196.242 366.415 196.577 366.369 196.907 366.369C197.117 366.369 197.358 366.395 197.631 366.446C197.907 366.494 198.172 366.595 198.428 366.749C198.686 366.902 198.901 367.134 199.071 367.443C199.242 367.753 199.327 368.168 199.327 368.688V373H198.321V372.114H198.27C198.202 372.256 198.088 372.408 197.929 372.57C197.77 372.732 197.559 372.869 197.294 372.983C197.03 373.097 196.708 373.153 196.327 373.153ZM196.48 372.25C196.878 372.25 197.213 372.172 197.486 372.016C197.762 371.859 197.969 371.658 198.108 371.411C198.25 371.163 198.321 370.903 198.321 370.631V369.71C198.279 369.761 198.185 369.808 198.04 369.851C197.898 369.891 197.733 369.926 197.546 369.957C197.361 369.986 197.181 370.011 197.005 370.034C196.831 370.054 196.691 370.071 196.583 370.085C196.321 370.119 196.077 370.175 195.85 370.251C195.625 370.325 195.444 370.437 195.304 370.588C195.168 370.736 195.1 370.937 195.1 371.193C195.1 371.543 195.229 371.807 195.488 371.986C195.749 372.162 196.08 372.25 196.48 372.25ZM205.799 367.92L204.896 368.176C204.839 368.026 204.755 367.879 204.644 367.737C204.536 367.592 204.388 367.473 204.201 367.379C204.013 367.286 203.773 367.239 203.481 367.239C203.08 367.239 202.746 367.331 202.479 367.516C202.215 367.697 202.083 367.929 202.083 368.21C202.083 368.46 202.174 368.658 202.356 368.803C202.538 368.947 202.822 369.068 203.208 369.165L204.18 369.403C204.765 369.545 205.201 369.763 205.488 370.055C205.775 370.345 205.918 370.719 205.918 371.176C205.918 371.551 205.81 371.886 205.594 372.182C205.381 372.477 205.083 372.71 204.7 372.881C204.316 373.051 203.87 373.136 203.362 373.136C202.694 373.136 202.141 372.991 201.704 372.702C201.266 372.412 200.989 371.989 200.873 371.432L201.827 371.193C201.918 371.545 202.09 371.81 202.343 371.986C202.599 372.162 202.933 372.25 203.344 372.25C203.813 372.25 204.185 372.151 204.461 371.952C204.739 371.75 204.879 371.509 204.879 371.227C204.879 371 204.799 370.81 204.64 370.656C204.481 370.5 204.237 370.384 203.907 370.307L202.816 370.051C202.217 369.909 201.776 369.689 201.495 369.391C201.217 369.089 201.077 368.713 201.077 368.261C201.077 367.892 201.181 367.565 201.388 367.281C201.599 366.997 201.884 366.774 202.245 366.612C202.609 366.45 203.021 366.369 203.481 366.369C204.129 366.369 204.637 366.511 205.006 366.795C205.379 367.08 205.643 367.455 205.799 367.92ZM210.279 366.455V367.307H206.887V366.455H210.279ZM207.875 364.886H208.881V371.125C208.881 371.409 208.922 371.622 209.005 371.764C209.09 371.903 209.198 371.997 209.328 372.045C209.462 372.091 209.603 372.114 209.75 372.114C209.861 372.114 209.952 372.108 210.023 372.097C210.094 372.082 210.151 372.071 210.194 372.062L210.398 372.966C210.33 372.991 210.235 373.017 210.113 373.043C209.99 373.071 209.836 373.085 209.648 373.085C209.364 373.085 209.086 373.024 208.813 372.902C208.543 372.78 208.319 372.594 208.14 372.344C207.963 372.094 207.875 371.778 207.875 371.398V364.886ZM216.65 373L214.655 366.455H215.712L217.127 371.466H217.195L218.593 366.455H219.667L221.047 371.449H221.115L222.53 366.455H223.587L221.593 373H220.604L219.172 367.972H219.07L217.638 373H216.65ZM227.438 373.136C226.808 373.136 226.263 372.997 225.806 372.719C225.352 372.438 225.001 372.045 224.754 371.543C224.509 371.037 224.387 370.449 224.387 369.778C224.387 369.108 224.509 368.517 224.754 368.006C225.001 367.491 225.344 367.091 225.785 366.804C226.228 366.514 226.745 366.369 227.336 366.369C227.677 366.369 228.013 366.426 228.346 366.54C228.678 366.653 228.981 366.838 229.254 367.094C229.526 367.347 229.744 367.682 229.906 368.099C230.067 368.517 230.148 369.031 230.148 369.642V370.068H225.103V369.199H229.126C229.126 368.83 229.052 368.5 228.904 368.21C228.759 367.92 228.552 367.692 228.282 367.524C228.015 367.357 227.7 367.273 227.336 367.273C226.935 367.273 226.589 367.372 226.296 367.571C226.006 367.767 225.783 368.023 225.627 368.338C225.471 368.653 225.393 368.991 225.393 369.352V369.932C225.393 370.426 225.478 370.845 225.648 371.189C225.822 371.53 226.062 371.79 226.369 371.969C226.675 372.145 227.032 372.233 227.438 372.233C227.702 372.233 227.941 372.196 228.154 372.122C228.37 372.045 228.556 371.932 228.712 371.781C228.869 371.628 228.989 371.437 229.075 371.21L230.046 371.483C229.944 371.812 229.772 372.102 229.531 372.352C229.289 372.599 228.991 372.793 228.636 372.932C228.281 373.068 227.881 373.136 227.438 373.136ZM234.423 373.136C233.792 373.136 233.248 372.997 232.79 372.719C232.336 372.438 231.985 372.045 231.738 371.543C231.494 371.037 231.371 370.449 231.371 369.778C231.371 369.108 231.494 368.517 231.738 368.006C231.985 367.491 232.329 367.091 232.769 366.804C233.212 366.514 233.729 366.369 234.32 366.369C234.661 366.369 234.998 366.426 235.33 366.54C235.663 366.653 235.965 366.838 236.238 367.094C236.511 367.347 236.728 367.682 236.89 368.099C237.052 368.517 237.133 369.031 237.133 369.642V370.068H232.087V369.199H236.11C236.11 368.83 236.036 368.5 235.888 368.21C235.744 367.92 235.536 367.692 235.266 367.524C234.999 367.357 234.684 367.273 234.32 367.273C233.92 367.273 233.573 367.372 233.281 367.571C232.991 367.767 232.768 368.023 232.612 368.338C232.455 368.653 232.377 368.991 232.377 369.352V369.932C232.377 370.426 232.462 370.845 232.633 371.189C232.806 371.53 233.046 371.79 233.353 371.969C233.66 372.145 234.016 372.233 234.423 372.233C234.687 372.233 234.925 372.196 235.138 372.122C235.354 372.045 235.54 371.932 235.697 371.781C235.853 371.628 235.974 371.437 236.059 371.21L237.031 371.483C236.928 371.812 236.756 372.102 236.515 372.352C236.273 372.599 235.975 372.793 235.62 372.932C235.265 373.068 234.866 373.136 234.423 373.136ZM239.6 370.614L239.583 369.369H239.788L242.651 366.455H243.896L240.844 369.54H240.759L239.6 370.614ZM238.663 373V364.273H239.668V373H238.663ZM242.822 373L240.265 369.761L240.981 369.062L244.1 373H242.822Z" fill="#667085"/>
<g clip-path="url(#clip0_1_3514)">
<path d="M84 103C84 99.6863 86.6863 97 90 97H110C113.314 97 116 99.6863 116 103V351H84V103Z" fill="#CCFBEF"/>
<path d="M124 137C124 133.686 126.686 131 130 131H150C153.314 131 156 133.686 156 137V351H124V137Z" fill="#134E48"/>
<path d="M173 145C173 141.686 175.686 139 179 139H199C202.314 139 205 141.686 205 145V351H173V145Z" fill="#CCFBEF"/>
<path d="M213 163C213 159.686 215.686 157 219 157H239C242.314 157 245 159.686 245 163V351H213V163Z" fill="#134E48"/>
</g>
<rect x="46.25" y="395.25" width="211.5" height="0.5" stroke="#DCDFE4" stroke-width="0.5"/>
<rect x="41" y="428" width="16" height="4" rx="2" fill="#CCFBEF"/>
<path d="M73.0795 428H72.0227C71.9602 427.696 71.8509 427.429 71.6946 427.199C71.5412 426.969 71.3537 426.776 71.1321 426.619C70.9134 426.46 70.6705 426.341 70.4034 426.261C70.1364 426.182 69.858 426.142 69.5682 426.142C69.0398 426.142 68.5611 426.276 68.1321 426.543C67.706 426.81 67.3665 427.203 67.1136 427.723C66.8636 428.243 66.7386 428.881 66.7386 429.636C66.7386 430.392 66.8636 431.03 67.1136 431.55C67.3665 432.07 67.706 432.463 68.1321 432.73C68.5611 432.997 69.0398 433.131 69.5682 433.131C69.858 433.131 70.1364 433.091 70.4034 433.011C70.6705 432.932 70.9134 432.814 71.1321 432.658C71.3537 432.499 71.5412 432.304 71.6946 432.074C71.8509 431.841 71.9602 431.574 72.0227 431.273H73.0795C73 431.719 72.8551 432.118 72.6449 432.47C72.4347 432.822 72.1733 433.122 71.8608 433.369C71.5483 433.614 71.1974 433.8 70.8082 433.928C70.4219 434.055 70.0085 434.119 69.5682 434.119C68.8239 434.119 68.1619 433.938 67.5824 433.574C67.0028 433.21 66.5469 432.693 66.2145 432.023C65.8821 431.352 65.7159 430.557 65.7159 429.636C65.7159 428.716 65.8821 427.92 66.2145 427.25C66.5469 426.58 67.0028 426.062 67.5824 425.699C68.1619 425.335 68.8239 425.153 69.5682 425.153C70.0085 425.153 70.4219 425.217 70.8082 425.345C71.1974 425.473 71.5483 425.661 71.8608 425.908C72.1733 426.152 72.4347 426.45 72.6449 426.803C72.8551 427.152 73 427.551 73.0795 428ZM77.31 434.136C76.7191 434.136 76.2006 433.996 75.7546 433.714C75.3114 433.433 74.9648 433.04 74.7148 432.534C74.4677 432.028 74.3441 431.437 74.3441 430.761C74.3441 430.08 74.4677 429.484 74.7148 428.976C74.9648 428.467 75.3114 428.072 75.7546 427.791C76.2006 427.51 76.7191 427.369 77.31 427.369C77.9009 427.369 78.418 427.51 78.8612 427.791C79.3072 428.072 79.6538 428.467 79.9009 428.976C80.1509 429.484 80.2759 430.08 80.2759 430.761C80.2759 431.437 80.1509 432.028 79.9009 432.534C79.6538 433.04 79.3072 433.433 78.8612 433.714C78.418 433.996 77.9009 434.136 77.31 434.136ZM77.31 433.233C77.7589 433.233 78.1282 433.118 78.418 432.888C78.7077 432.658 78.9222 432.355 79.0614 431.98C79.2006 431.605 79.2702 431.199 79.2702 430.761C79.2702 430.324 79.2006 429.916 79.0614 429.538C78.9222 429.161 78.7077 428.855 78.418 428.622C78.1282 428.389 77.7589 428.273 77.31 428.273C76.8612 428.273 76.4918 428.389 76.2021 428.622C75.9123 428.855 75.6978 429.161 75.5586 429.538C75.4194 429.916 75.3498 430.324 75.3498 430.761C75.3498 431.199 75.4194 431.605 75.5586 431.98C75.6978 432.355 75.9123 432.658 76.2021 432.888C76.4918 433.118 76.8612 433.233 77.31 433.233ZM82.8168 430.062V434H81.8111V427.455H82.7827V428.477H82.8679C83.0213 428.145 83.2543 427.878 83.5668 427.676C83.8793 427.472 84.2827 427.369 84.777 427.369C85.2202 427.369 85.608 427.46 85.9403 427.642C86.2727 427.821 86.5313 428.094 86.7159 428.46C86.9006 428.824 86.9929 429.284 86.9929 429.841V434H85.9872V429.909C85.9872 429.395 85.8537 428.994 85.5866 428.707C85.3196 428.418 84.9531 428.273 84.4872 428.273C84.1662 428.273 83.8793 428.342 83.6264 428.482C83.3764 428.621 83.179 428.824 83.0341 429.091C82.8892 429.358 82.8168 429.682 82.8168 430.062ZM93.467 428.92L92.5636 429.176C92.5067 429.026 92.4229 428.879 92.3121 428.737C92.2042 428.592 92.0565 428.473 91.869 428.379C91.6815 428.286 91.4414 428.239 91.1488 428.239C90.7482 428.239 90.4144 428.331 90.1474 428.516C89.8832 428.697 89.7511 428.929 89.7511 429.21C89.7511 429.46 89.842 429.658 90.0238 429.803C90.2056 429.947 90.4897 430.068 90.8761 430.165L91.8477 430.403C92.4329 430.545 92.869 430.763 93.1559 431.055C93.4428 431.345 93.5863 431.719 93.5863 432.176C93.5863 432.551 93.4783 432.886 93.2624 433.182C93.0494 433.477 92.7511 433.71 92.3675 433.881C91.984 434.051 91.538 434.136 91.0295 434.136C90.3619 434.136 89.8093 433.991 89.3718 433.702C88.9343 433.412 88.6573 432.989 88.5408 432.432L89.4954 432.193C89.5863 432.545 89.7582 432.81 90.011 432.986C90.2667 433.162 90.6005 433.25 91.0124 433.25C91.4812 433.25 91.8533 433.151 92.1289 432.952C92.4073 432.75 92.5465 432.509 92.5465 432.227C92.5465 432 92.467 431.81 92.3079 431.656C92.1488 431.5 91.9045 431.384 91.5749 431.307L90.484 431.051C89.8846 430.909 89.4442 430.689 89.163 430.391C88.8846 430.089 88.7454 429.713 88.7454 429.261C88.7454 428.892 88.8491 428.565 89.0565 428.281C89.2667 427.997 89.5522 427.774 89.913 427.612C90.2766 427.45 90.6886 427.369 91.1488 427.369C91.7965 427.369 92.305 427.511 92.6744 427.795C93.0465 428.08 93.3107 428.455 93.467 428.92ZM99.2251 431.324V427.455H100.231V434H99.2251V432.892H99.157C99.0036 433.224 98.7649 433.507 98.4411 433.74C98.1172 433.97 97.7081 434.085 97.2138 434.085C96.8047 434.085 96.4411 433.996 96.1229 433.817C95.8047 433.635 95.5547 433.362 95.3729 432.999C95.1911 432.632 95.1001 432.17 95.1001 431.614V427.455H96.1058V431.545C96.1058 432.023 96.2393 432.403 96.5064 432.688C96.7763 432.972 97.12 433.114 97.5376 433.114C97.7876 433.114 98.0419 433.05 98.3004 432.922C98.5618 432.794 98.7805 432.598 98.9567 432.334C99.1357 432.07 99.2251 431.733 99.2251 431.324ZM103.078 425.273V434H102.073V425.273H103.078ZM107.767 427.455V428.307H104.375V427.455H107.767ZM105.364 425.886H106.369V432.125C106.369 432.409 106.411 432.622 106.493 432.764C106.578 432.903 106.686 432.997 106.817 433.045C106.95 433.091 107.091 433.114 107.239 433.114C107.349 433.114 107.44 433.108 107.511 433.097C107.582 433.082 107.639 433.071 107.682 433.062L107.886 433.966C107.818 433.991 107.723 434.017 107.601 434.043C107.479 434.071 107.324 434.085 107.136 434.085C106.852 434.085 106.574 434.024 106.301 433.902C106.031 433.78 105.807 433.594 105.628 433.344C105.452 433.094 105.364 432.778 105.364 432.398V425.886ZM111.206 434.153C110.791 434.153 110.415 434.075 110.077 433.919C109.739 433.76 109.47 433.531 109.271 433.233C109.072 432.932 108.973 432.568 108.973 432.142C108.973 431.767 109.047 431.463 109.195 431.23C109.342 430.994 109.54 430.81 109.787 430.676C110.034 430.543 110.307 430.443 110.605 430.378C110.906 430.31 111.209 430.256 111.513 430.216C111.911 430.165 112.233 430.126 112.48 430.101C112.73 430.072 112.912 430.026 113.026 429.96C113.142 429.895 113.2 429.781 113.2 429.619V429.585C113.2 429.165 113.085 428.838 112.855 428.605C112.628 428.372 112.283 428.256 111.82 428.256C111.339 428.256 110.963 428.361 110.69 428.571C110.418 428.781 110.226 429.006 110.115 429.244L109.161 428.903C109.331 428.506 109.558 428.196 109.842 427.974C110.129 427.75 110.442 427.594 110.78 427.506C111.121 427.415 111.456 427.369 111.786 427.369C111.996 427.369 112.237 427.395 112.51 427.446C112.786 427.494 113.051 427.595 113.307 427.749C113.565 427.902 113.78 428.134 113.95 428.443C114.121 428.753 114.206 429.168 114.206 429.688V434H113.2V433.114H113.149C113.081 433.256 112.967 433.408 112.808 433.57C112.649 433.732 112.438 433.869 112.173 433.983C111.909 434.097 111.587 434.153 111.206 434.153ZM111.359 433.25C111.757 433.25 112.092 433.172 112.365 433.016C112.641 432.859 112.848 432.658 112.987 432.411C113.129 432.163 113.2 431.903 113.2 431.631V430.71C113.158 430.761 113.064 430.808 112.919 430.851C112.777 430.891 112.612 430.926 112.425 430.957C112.24 430.986 112.06 431.011 111.884 431.034C111.71 431.054 111.57 431.071 111.462 431.085C111.2 431.119 110.956 431.175 110.729 431.251C110.504 431.325 110.322 431.437 110.183 431.588C110.047 431.736 109.979 431.937 109.979 432.193C109.979 432.543 110.108 432.807 110.366 432.986C110.628 433.162 110.959 433.25 111.359 433.25ZM118.888 427.455V428.307H115.496V427.455H118.888ZM116.485 425.886H117.49V432.125C117.49 432.409 117.532 432.622 117.614 432.764C117.699 432.903 117.807 432.997 117.938 433.045C118.071 433.091 118.212 433.114 118.36 433.114C118.471 433.114 118.561 433.108 118.632 433.097C118.703 433.082 118.76 433.071 118.803 433.062L119.007 433.966C118.939 433.991 118.844 434.017 118.722 434.043C118.6 434.071 118.445 434.085 118.257 434.085C117.973 434.085 117.695 434.024 117.422 433.902C117.152 433.78 116.928 433.594 116.749 433.344C116.573 433.094 116.485 432.778 116.485 432.398V425.886ZM120.401 434V427.455H121.407V434H120.401ZM120.912 426.364C120.716 426.364 120.547 426.297 120.405 426.163C120.266 426.03 120.196 425.869 120.196 425.682C120.196 425.494 120.266 425.334 120.405 425.2C120.547 425.067 120.716 425 120.912 425C121.108 425 121.276 425.067 121.415 425.2C121.557 425.334 121.628 425.494 121.628 425.682C121.628 425.869 121.557 426.03 121.415 426.163C121.276 426.297 121.108 426.364 120.912 426.364ZM125.908 434.136C125.317 434.136 124.798 433.996 124.352 433.714C123.909 433.433 123.562 433.04 123.312 432.534C123.065 432.028 122.942 431.437 122.942 430.761C122.942 430.08 123.065 429.484 123.312 428.976C123.562 428.467 123.909 428.072 124.352 427.791C124.798 427.51 125.317 427.369 125.908 427.369C126.499 427.369 127.016 427.51 127.459 427.791C127.905 428.072 128.251 428.467 128.499 428.976C128.749 429.484 128.874 430.08 128.874 430.761C128.874 431.437 128.749 432.028 128.499 432.534C128.251 433.04 127.905 433.433 127.459 433.714C127.016 433.996 126.499 434.136 125.908 434.136ZM125.908 433.233C126.357 433.233 126.726 433.118 127.016 432.888C127.305 432.658 127.52 432.355 127.659 431.98C127.798 431.605 127.868 431.199 127.868 430.761C127.868 430.324 127.798 429.916 127.659 429.538C127.52 429.161 127.305 428.855 127.016 428.622C126.726 428.389 126.357 428.273 125.908 428.273C125.459 428.273 125.089 428.389 124.8 428.622C124.51 428.855 124.295 429.161 124.156 429.538C124.017 429.916 123.947 430.324 123.947 430.761C123.947 431.199 124.017 431.605 124.156 431.98C124.295 432.355 124.51 432.658 124.8 432.888C125.089 433.118 125.459 433.233 125.908 433.233ZM131.414 430.062V434H130.409V427.455H131.38V428.477H131.466C131.619 428.145 131.852 427.878 132.164 427.676C132.477 427.472 132.88 427.369 133.375 427.369C133.818 427.369 134.206 427.46 134.538 427.642C134.87 427.821 135.129 428.094 135.314 428.46C135.498 428.824 135.591 429.284 135.591 429.841V434H134.585V429.909C134.585 429.395 134.451 428.994 134.184 428.707C133.917 428.418 133.551 428.273 133.085 428.273C132.764 428.273 132.477 428.342 132.224 428.482C131.974 428.621 131.777 428.824 131.632 429.091C131.487 429.358 131.414 429.682 131.414 430.062ZM142.065 428.92L141.161 429.176C141.104 429.026 141.021 428.879 140.91 428.737C140.802 428.592 140.654 428.473 140.467 428.379C140.279 428.286 140.039 428.239 139.746 428.239C139.346 428.239 139.012 428.331 138.745 428.516C138.481 428.697 138.349 428.929 138.349 429.21C138.349 429.46 138.44 429.658 138.621 429.803C138.803 429.947 139.087 430.068 139.474 430.165L140.445 430.403C141.031 430.545 141.467 430.763 141.754 431.055C142.04 431.345 142.184 431.719 142.184 432.176C142.184 432.551 142.076 432.886 141.86 433.182C141.647 433.477 141.349 433.71 140.965 433.881C140.582 434.051 140.136 434.136 139.627 434.136C138.96 434.136 138.407 433.991 137.969 433.702C137.532 433.412 137.255 432.989 137.138 432.432L138.093 432.193C138.184 432.545 138.356 432.81 138.609 432.986C138.864 433.162 139.198 433.25 139.61 433.25C140.079 433.25 140.451 433.151 140.727 432.952C141.005 432.75 141.144 432.509 141.144 432.227C141.144 432 141.065 431.81 140.906 431.656C140.746 431.5 140.502 431.384 140.173 431.307L139.082 431.051C138.482 430.909 138.042 430.689 137.761 430.391C137.482 430.089 137.343 429.713 137.343 429.261C137.343 428.892 137.447 428.565 137.654 428.281C137.864 427.997 138.15 427.774 138.511 427.612C138.874 427.45 139.286 427.369 139.746 427.369C140.394 427.369 140.903 427.511 141.272 427.795C141.644 428.08 141.908 428.455 142.065 428.92Z" fill="#667085"/>
<rect x="159" y="428" width="16" height="4" rx="2" fill="#134E48"/>
<path d="M191.42 429.636C191.42 430.557 191.254 431.352 190.922 432.023C190.589 432.693 190.134 433.21 189.554 433.574C188.974 433.938 188.313 434.119 187.568 434.119C186.824 434.119 186.162 433.938 185.582 433.574C185.003 433.21 184.547 432.693 184.214 432.023C183.882 431.352 183.716 430.557 183.716 429.636C183.716 428.716 183.882 427.92 184.214 427.25C184.547 426.58 185.003 426.062 185.582 425.699C186.162 425.335 186.824 425.153 187.568 425.153C188.313 425.153 188.974 425.335 189.554 425.699C190.134 426.062 190.589 426.58 190.922 427.25C191.254 427.92 191.42 428.716 191.42 429.636ZM190.398 429.636C190.398 428.881 190.271 428.243 190.018 427.723C189.768 427.203 189.429 426.81 189 426.543C188.574 426.276 188.097 426.142 187.568 426.142C187.04 426.142 186.561 426.276 186.132 426.543C185.706 426.81 185.366 427.203 185.114 427.723C184.864 428.243 184.739 428.881 184.739 429.636C184.739 430.392 184.864 431.03 185.114 431.55C185.366 432.07 185.706 432.463 186.132 432.73C186.561 432.997 187.04 433.131 187.568 433.131C188.097 433.131 188.574 432.997 189 432.73C189.429 432.463 189.768 432.07 190.018 431.55C190.271 431.03 190.398 430.392 190.398 429.636ZM193.061 434V427.455H194.033V428.443H194.101C194.22 428.119 194.436 427.857 194.749 427.655C195.061 427.453 195.413 427.352 195.805 427.352C195.879 427.352 195.972 427.354 196.082 427.357C196.193 427.359 196.277 427.364 196.334 427.369V428.392C196.3 428.384 196.222 428.371 196.099 428.354C195.98 428.334 195.854 428.324 195.72 428.324C195.402 428.324 195.118 428.391 194.868 428.524C194.621 428.655 194.425 428.837 194.28 429.07C194.138 429.3 194.067 429.562 194.067 429.858V434H193.061ZM199.798 434.136C199.253 434.136 198.771 433.999 198.354 433.723C197.936 433.445 197.609 433.053 197.374 432.547C197.138 432.038 197.02 431.438 197.02 430.744C197.02 430.057 197.138 429.46 197.374 428.955C197.609 428.449 197.938 428.058 198.358 427.783C198.778 427.507 199.264 427.369 199.815 427.369C200.241 427.369 200.578 427.44 200.825 427.582C201.075 427.722 201.266 427.881 201.396 428.06C201.53 428.236 201.634 428.381 201.707 428.494H201.793V425.273H202.798V434H201.827V432.994H201.707C201.634 433.114 201.528 433.264 201.392 433.446C201.256 433.625 201.061 433.786 200.808 433.928C200.555 434.067 200.219 434.136 199.798 434.136ZM199.935 433.233C200.338 433.233 200.679 433.128 200.957 432.918C201.236 432.705 201.447 432.411 201.592 432.036C201.737 431.658 201.81 431.222 201.81 430.727C201.81 430.239 201.739 429.811 201.597 429.445C201.455 429.075 201.244 428.788 200.966 428.584C200.688 428.376 200.344 428.273 199.935 428.273C199.509 428.273 199.153 428.382 198.869 428.601C198.588 428.817 198.376 429.111 198.234 429.483C198.095 429.852 198.026 430.267 198.026 430.727C198.026 431.193 198.097 431.616 198.239 431.997C198.384 432.375 198.597 432.676 198.878 432.901C199.162 433.122 199.514 433.233 199.935 433.233ZM207.524 434.136C206.893 434.136 206.349 433.997 205.892 433.719C205.438 433.438 205.087 433.045 204.839 432.543C204.595 432.037 204.473 431.449 204.473 430.778C204.473 430.108 204.595 429.517 204.839 429.006C205.087 428.491 205.43 428.091 205.871 427.804C206.314 427.514 206.831 427.369 207.422 427.369C207.763 427.369 208.099 427.426 208.432 427.54C208.764 427.653 209.067 427.838 209.339 428.094C209.612 428.347 209.83 428.682 209.991 429.099C210.153 429.517 210.234 430.031 210.234 430.642V431.068H205.189V430.199H209.212C209.212 429.83 209.138 429.5 208.99 429.21C208.845 428.92 208.638 428.692 208.368 428.524C208.101 428.357 207.786 428.273 207.422 428.273C207.021 428.273 206.675 428.372 206.382 428.571C206.092 428.767 205.869 429.023 205.713 429.338C205.557 429.653 205.479 429.991 205.479 430.352V430.932C205.479 431.426 205.564 431.845 205.734 432.189C205.908 432.53 206.148 432.79 206.455 432.969C206.761 433.145 207.118 433.233 207.524 433.233C207.788 433.233 208.027 433.196 208.24 433.122C208.456 433.045 208.642 432.932 208.798 432.781C208.955 432.628 209.075 432.437 209.161 432.21L210.132 432.483C210.03 432.812 209.858 433.102 209.616 433.352C209.375 433.599 209.077 433.793 208.722 433.932C208.366 434.068 207.967 434.136 207.524 434.136ZM211.764 434V427.455H212.736V428.443H212.804C212.923 428.119 213.139 427.857 213.452 427.655C213.764 427.453 214.116 427.352 214.509 427.352C214.582 427.352 214.675 427.354 214.786 427.357C214.896 427.359 214.98 427.364 215.037 427.369V428.392C215.003 428.384 214.925 428.371 214.803 428.354C214.683 428.334 214.557 428.324 214.423 428.324C214.105 428.324 213.821 428.391 213.571 428.524C213.324 428.655 213.128 428.837 212.983 429.07C212.841 429.3 212.77 429.562 212.77 429.858V434H211.764ZM220.865 428.92L219.962 429.176C219.905 429.026 219.821 428.879 219.711 428.737C219.603 428.592 219.455 428.473 219.267 428.379C219.08 428.286 218.84 428.239 218.547 428.239C218.147 428.239 217.813 428.331 217.546 428.516C217.282 428.697 217.15 428.929 217.15 429.21C217.15 429.46 217.24 429.658 217.422 429.803C217.604 429.947 217.888 430.068 218.275 430.165L219.246 430.403C219.831 430.545 220.267 430.763 220.554 431.055C220.841 431.345 220.985 431.719 220.985 432.176C220.985 432.551 220.877 432.886 220.661 433.182C220.448 433.477 220.15 433.71 219.766 433.881C219.382 434.051 218.936 434.136 218.428 434.136C217.76 434.136 217.208 433.991 216.77 433.702C216.333 433.412 216.056 432.989 215.939 432.432L216.894 432.193C216.985 432.545 217.157 432.81 217.409 432.986C217.665 433.162 217.999 433.25 218.411 433.25C218.88 433.25 219.252 433.151 219.527 432.952C219.806 432.75 219.945 432.509 219.945 432.227C219.945 432 219.865 431.81 219.706 431.656C219.547 431.5 219.303 431.384 218.973 431.307L217.882 431.051C217.283 430.909 216.843 430.689 216.561 430.391C216.283 430.089 216.144 429.713 216.144 429.261C216.144 428.892 216.248 428.565 216.455 428.281C216.665 427.997 216.951 427.774 217.311 427.612C217.675 427.45 218.087 427.369 218.547 427.369C219.195 427.369 219.703 427.511 220.073 427.795C220.445 428.08 220.709 428.455 220.865 428.92ZM228.533 434.136C227.919 434.136 227.391 433.991 226.947 433.702C226.504 433.412 226.163 433.013 225.925 432.504C225.686 431.996 225.567 431.415 225.567 430.761C225.567 430.097 225.689 429.51 225.933 429.001C226.18 428.49 226.524 428.091 226.964 427.804C227.408 427.514 227.925 427.369 228.516 427.369C228.976 427.369 229.391 427.455 229.76 427.625C230.129 427.795 230.432 428.034 230.668 428.341C230.903 428.648 231.05 429.006 231.107 429.415H230.101C230.024 429.116 229.854 428.852 229.589 428.622C229.328 428.389 228.976 428.273 228.533 428.273C228.141 428.273 227.797 428.375 227.501 428.58C227.209 428.781 226.98 429.067 226.815 429.436C226.653 429.803 226.572 430.233 226.572 430.727C226.572 431.233 226.652 431.673 226.811 432.048C226.973 432.423 227.2 432.714 227.493 432.922C227.788 433.129 228.135 433.233 228.533 433.233C228.794 433.233 229.031 433.188 229.244 433.097C229.457 433.006 229.638 432.875 229.786 432.705C229.933 432.534 230.038 432.33 230.101 432.091H231.107C231.05 432.477 230.909 432.825 230.685 433.135C230.463 433.442 230.169 433.686 229.803 433.868C229.439 434.047 229.016 434.136 228.533 434.136ZM233.582 425.273V434H232.577V425.273H233.582ZM238.083 434.136C237.493 434.136 236.974 433.996 236.528 433.714C236.085 433.433 235.738 433.04 235.488 432.534C235.241 432.028 235.118 431.437 235.118 430.761C235.118 430.08 235.241 429.484 235.488 428.976C235.738 428.467 236.085 428.072 236.528 427.791C236.974 427.51 237.493 427.369 238.083 427.369C238.674 427.369 239.191 427.51 239.635 427.791C240.081 428.072 240.427 428.467 240.674 428.976C240.924 429.484 241.049 430.08 241.049 430.761C241.049 431.437 240.924 432.028 240.674 432.534C240.427 433.04 240.081 433.433 239.635 433.714C239.191 433.996 238.674 434.136 238.083 434.136ZM238.083 433.233C238.532 433.233 238.902 433.118 239.191 432.888C239.481 432.658 239.696 432.355 239.835 431.98C239.974 431.605 240.044 431.199 240.044 430.761C240.044 430.324 239.974 429.916 239.835 429.538C239.696 429.161 239.481 428.855 239.191 428.622C238.902 428.389 238.532 428.273 238.083 428.273C237.635 428.273 237.265 428.389 236.975 428.622C236.686 428.855 236.471 429.161 236.332 429.538C236.193 429.916 236.123 430.324 236.123 430.761C236.123 431.199 236.193 431.605 236.332 431.98C236.471 432.355 236.686 432.658 236.975 432.888C237.265 433.118 237.635 433.233 238.083 433.233ZM247.221 428.92L246.317 429.176C246.261 429.026 246.177 428.879 246.066 428.737C245.958 428.592 245.81 428.473 245.623 428.379C245.435 428.286 245.195 428.239 244.903 428.239C244.502 428.239 244.168 428.331 243.901 428.516C243.637 428.697 243.505 428.929 243.505 429.21C243.505 429.46 243.596 429.658 243.778 429.803C243.96 429.947 244.244 430.068 244.63 430.165L245.602 430.403C246.187 430.545 246.623 430.763 246.91 431.055C247.197 431.345 247.34 431.719 247.34 432.176C247.34 432.551 247.232 432.886 247.016 433.182C246.803 433.477 246.505 433.71 246.121 433.881C245.738 434.051 245.292 434.136 244.783 434.136C244.116 434.136 243.563 433.991 243.126 433.702C242.688 433.412 242.411 432.989 242.295 432.432L243.249 432.193C243.34 432.545 243.512 432.81 243.765 432.986C244.021 433.162 244.354 433.25 244.766 433.25C245.235 433.25 245.607 433.151 245.883 432.952C246.161 432.75 246.3 432.509 246.3 432.227C246.3 432 246.221 431.81 246.062 431.656C245.903 431.5 245.658 431.384 245.329 431.307L244.238 431.051C243.638 430.909 243.198 430.689 242.917 430.391C242.638 430.089 242.499 429.713 242.499 429.261C242.499 428.892 242.603 428.565 242.81 428.281C243.021 427.997 243.306 427.774 243.667 427.612C244.031 427.45 244.442 427.369 244.903 427.369C245.55 427.369 246.059 427.511 246.428 427.795C246.8 428.08 247.065 428.455 247.221 428.92ZM251.598 434.136C250.968 434.136 250.424 433.997 249.966 433.719C249.512 433.438 249.161 433.045 248.914 432.543C248.669 432.037 248.547 431.449 248.547 430.778C248.547 430.108 248.669 429.517 248.914 429.006C249.161 428.491 249.505 428.091 249.945 427.804C250.388 427.514 250.905 427.369 251.496 427.369C251.837 427.369 252.174 427.426 252.506 427.54C252.838 427.653 253.141 427.838 253.414 428.094C253.686 428.347 253.904 428.682 254.066 429.099C254.228 429.517 254.309 430.031 254.309 430.642V431.068H249.263V430.199H253.286C253.286 429.83 253.212 429.5 253.064 429.21C252.919 428.92 252.712 428.692 252.442 428.524C252.175 428.357 251.86 428.273 251.496 428.273C251.096 428.273 250.749 428.372 250.456 428.571C250.167 428.767 249.944 429.023 249.787 429.338C249.631 429.653 249.553 429.991 249.553 430.352V430.932C249.553 431.426 249.638 431.845 249.809 432.189C249.982 432.53 250.222 432.79 250.529 432.969C250.836 433.145 251.192 433.233 251.598 433.233C251.863 433.233 252.101 433.196 252.314 433.122C252.53 433.045 252.716 432.932 252.873 432.781C253.029 432.628 253.15 432.437 253.235 432.21L254.206 432.483C254.104 432.812 253.932 433.102 253.691 433.352C253.449 433.599 253.151 433.793 252.796 433.932C252.441 434.068 252.042 434.136 251.598 434.136ZM258.31 434.136C257.765 434.136 257.283 433.999 256.865 433.723C256.448 433.445 256.121 433.053 255.885 432.547C255.65 432.038 255.532 431.438 255.532 430.744C255.532 430.057 255.65 429.46 255.885 428.955C256.121 428.449 256.449 428.058 256.87 427.783C257.29 427.507 257.776 427.369 258.327 427.369C258.753 427.369 259.09 427.44 259.337 427.582C259.587 427.722 259.777 427.881 259.908 428.06C260.042 428.236 260.145 428.381 260.219 428.494H260.304V425.273H261.31V434H260.338V432.994H260.219C260.145 433.114 260.04 433.264 259.904 433.446C259.767 433.625 259.573 433.786 259.32 433.928C259.067 434.067 258.73 434.136 258.31 434.136ZM258.446 433.233C258.85 433.233 259.191 433.128 259.469 432.918C259.748 432.705 259.959 432.411 260.104 432.036C260.249 431.658 260.321 431.222 260.321 430.727C260.321 430.239 260.25 429.811 260.108 429.445C259.966 429.075 259.756 428.788 259.478 428.584C259.199 428.376 258.855 428.273 258.446 428.273C258.02 428.273 257.665 428.382 257.381 428.601C257.1 428.817 256.888 429.111 256.746 429.483C256.607 429.852 256.537 430.267 256.537 430.727C256.537 431.193 256.608 431.616 256.75 431.997C256.895 432.375 257.108 432.676 257.39 432.901C257.674 433.122 258.026 433.233 258.446 433.233Z" fill="#667085"/>
</g>
<defs>
<filter id="filter0_dd_1_3514" x="0" y="0" width="304" height="499" filterUnits="userSpaceOnUse" color-interpolation-filters="sRGB">
<feFlood flood-opacity="0" result="BackgroundImageFix"/>
<feColorMatrix in="SourceAlpha" type="matrix" values="0 0 0 0 0 0 0 0 0 0 0 0 0 0 0 0 0 0 127 0" result="hardAlpha"/>
<feOffset dy="5"/>
<feGaussianBlur stdDeviation="11"/>
<feComposite in2="hardAlpha" operator="out"/>
<feColorMatrix type="matrix" values="0 0 0 0 0 0 0 0 0 0 0 0 0 0 0 0 0 0 0.04 0"/>
<feBlend mode="normal" in2="BackgroundImageFix" result="effect1_dropShadow_1_3514"/>
<feColorMatrix in="SourceAlpha" type="matrix" values="0 0 0 0 0 0 0 0 0 0 0 0 0 0 0 0 0 0 127 0" result="hardAlpha"/>
<feMorphology radius="1" operator="dilate" in="SourceAlpha" result="effect2_dropShadow_1_3514"/>
<feOffset/>
<feComposite in2="hardAlpha" operator="out"/>
<feColorMatrix type="matrix" values="0 0 0 0 0 0 0 0 0 0 0 0 0 0 0 0 0 0 0.06 0"/>
<feBlend mode="normal" in2="effect1_dropShadow_1_3514" result="effect2_dropShadow_1_3514"/>
<feBlend mode="normal" in="SourceGraphic" in2="effect2_dropShadow_1_3514" result="shape"/>
</filter>
<clipPath id="clip0_1_3514">
<rect width="200.853" height="254" fill="white" transform="translate(64 97)"/>
</clipPath>
</defs>
</svg>
